<mxfile host="app.diagrams.net" agent="Mozilla/5.0 (Windows NT 10.0; Win64; x64) AppleWebKit/537.36 (KHTML, like Gecko) Chrome/131.0.0.0 Safari/537.36" version="24.8.6">
  <diagram name="Flowchart" id="1n3KB5uvzyQhaw2PXJRa">
    <mxGraphModel dx="875" dy="442" grid="0" gridSize="10" guides="1" tooltips="1" connect="1" arrows="1" fold="1" page="1" pageScale="1" pageWidth="827" pageHeight="1169" math="0" shadow="0">
      <root>
        <mxCell id="0" />
        <mxCell id="1" parent="0" />
        <mxCell id="4vDtojx_aZhvrDdnVRWd-3" value="GitHub" style="rounded=1;whiteSpace=wrap;html=1;strokeColor=#000000;fillColor=#ffffff;shadow=1;" vertex="1" parent="1">
          <mxGeometry x="100" y="150" width="137" height="60" as="geometry" />
        </mxCell>
        <mxCell id="4vDtojx_aZhvrDdnVRWd-4" value="Stack Overflow" style="rounded=1;whiteSpace=wrap;html=1;strokeColor=#000000;fillColor=#ffffff;shadow=1;" vertex="1" parent="1">
          <mxGeometry x="311" y="150" width="144" height="59" as="geometry" />
        </mxCell>
        <mxCell id="4vDtojx_aZhvrDdnVRWd-5" value="The Stack" style="rounded=1;whiteSpace=wrap;html=1;strokeColor=#000000;fillColor=#ffffff;shadow=1;" vertex="1" parent="1">
          <mxGeometry x="200" y="55" width="150" height="60" as="geometry" />
        </mxCell>
      </root>
    </mxGraphModel>
  </diagram>
</mxfile>
